<svg version="1.1" id="Layer_1" xmlns="http://www.w3.org/2000/svg" xmlns:xlink="http://www.w3.org/1999/xlink" x="0px" y="0px"
	 width="100%" viewBox="0 0 113 113" enable-background="new 0 0 113 113" xml:space="preserve">
<path fill="#FEFFFE" opacity="1.000000" stroke="none" 
	d="
M64.000000,114.000000 
	C42.666668,114.000000 21.833334,114.000000 1.000000,114.000000 
	C1.000000,76.333336 1.000000,38.666668 1.000000,1.000000 
	C38.666668,1.000000 76.333336,1.000000 114.000000,1.000000 
	C114.000000,38.666668 114.000000,76.333336 114.000000,114.000000 
	C97.500000,114.000000 81.000000,114.000000 64.000000,114.000000 
M59.000000,79.000000 
	C59.000000,79.000000 58.994598,78.995972 58.497158,78.984787 
	C58.497158,78.984787 57.999615,78.994980 57.262474,79.091759 
	C53.345688,82.735626 52.950844,86.514954 56.626213,89.289932 
	C56.767174,89.828331 56.908134,90.366722 57.013893,91.666985 
	C57.537865,95.423935 59.854061,95.962257 63.825760,95.000359 
	C68.217949,93.655502 72.610138,92.310646 77.827820,90.988289 
	C82.443680,91.630569 84.515167,89.100113 84.766281,84.957458 
	C84.924347,82.349770 86.554382,78.769028 81.360710,77.685081 
	C80.573433,77.014633 79.786163,76.344185 78.759789,75.344688 
	C78.558075,75.146828 78.317413,75.027275 77.579788,74.883873 
	C77.270912,74.787834 77.015388,74.613556 76.876129,73.586578 
	C76.604736,72.123711 76.333344,70.660851 76.367195,68.967369 
	C76.367195,68.967369 76.726852,68.836975 77.645653,68.938965 
	C79.176582,68.924110 80.707504,68.909256 82.386353,69.254295 
	C82.386353,69.254295 82.378860,69.643333 81.912064,70.228134 
	C81.042679,70.819122 80.173294,71.410103 78.533905,72.524506 
	C82.632385,74.185081 85.858017,75.942383 89.303009,76.693214 
	C90.965210,77.055496 93.040245,75.523636 95.349068,74.315598 
	C95.477371,72.232948 95.605675,70.150299 96.528557,67.919067 
	C97.780449,66.286659 98.693779,63.887939 100.344635,63.158585 
	C106.483513,60.446415 107.312233,55.550774 102.010376,50.110962 
	C102.010376,48.217392 102.010376,46.323822 102.010376,44.160927 
	C99.980461,44.317226 98.751945,44.411819 97.239029,44.528313 
	C97.143150,42.853844 97.060318,41.407249 97.049591,39.291965 
	C96.931015,37.832638 96.812439,36.373306 96.434502,34.248981 
	C95.656784,33.375851 94.879074,32.502724 94.061981,31.261238 
	C94.061981,31.261238 94.007706,30.894781 94.003342,30.138996 
	C93.188751,25.971012 88.111343,21.324356 83.946472,20.345577 
	C83.296272,19.232946 82.646072,18.120317 81.905312,16.261368 
	C80.185814,15.583369 78.095078,13.965631 76.839378,14.461685 
	C75.215004,15.103378 74.257141,17.432287 72.473717,19.492477 
	C72.314636,20.660673 72.155556,21.828869 71.879990,23.461380 
	C71.879990,23.461380 71.751778,23.922596 71.375801,23.942387 
	C71.375801,23.942387 71.000000,23.965208 70.563141,23.442106 
	C69.279503,22.944693 67.995865,22.447281 66.848701,21.230124 
	C66.819183,20.500956 66.789665,19.771790 67.389603,18.686716 
	C69.376961,16.351891 69.546593,14.108401 66.658051,12.476460 
	C61.888367,9.781723 57.972321,10.838305 54.776100,15.404487 
	C53.945156,16.591587 52.981846,17.686037 52.174068,18.703697 
	C48.490417,17.828180 44.735512,15.744123 41.878124,16.612692 
	C39.338387,17.384705 37.793835,21.430626 35.860294,23.965601 
	C36.621067,24.810102 36.883156,25.342300 37.290783,25.501238 
	C38.044395,25.795080 38.883255,25.870277 40.115185,26.546045 
	C40.480618,27.342737 40.846050,28.139429 40.347618,28.969172 
	C38.231815,29.314211 36.116016,29.659250 33.265587,29.989433 
	C30.016724,29.074915 27.180626,29.094330 26.055817,33.001945 
	C26.055817,33.001945 26.159090,33.123150 25.422804,33.129555 
	C23.560762,36.636623 24.953465,39.741825 28.999552,40.998081 
	C28.999552,40.998081 28.986032,41.040031 29.213869,41.498516 
	C29.510141,41.652348 29.806414,41.806175 30.568764,42.057262 
	C30.568764,42.057262 30.994547,42.270332 31.283508,42.644760 
	C31.541063,42.862625 31.837738,42.954666 32.984451,42.905186 
	C34.605885,42.892574 36.227322,42.879963 37.996162,43.554146 
	C38.727177,44.387344 39.458195,45.220543 40.055740,46.689667 
	C40.055382,47.120743 40.055019,47.551823 39.503551,48.345432 
	C38.675213,48.458546 37.843140,48.687248 37.019310,48.660664 
	C35.314236,48.605644 33.613544,48.414818 31.279528,48.163696 
	C30.866863,48.050282 30.454197,47.936867 29.883015,47.167107 
	C28.136822,46.686680 25.497118,42.131130 25.172256,48.152737 
	C25.172256,48.152737 25.130630,48.173115 24.347849,48.064629 
	C20.664112,48.427715 18.252008,49.928410 19.228821,54.143848 
	C20.069122,57.770172 23.781231,59.988834 27.763842,58.905361 
	C28.498976,58.834789 29.234112,58.764217 29.982853,59.342381 
	C29.991579,59.557304 30.000307,59.772232 30.005392,60.910969 
	C30.055819,62.140972 30.106247,63.370979 29.892365,64.551514 
	C29.892365,64.551514 29.632210,64.483498 28.861197,64.222855 
	C24.340469,66.479095 23.089951,70.247353 26.448011,73.219406 
	C26.620872,73.528511 26.793734,73.837608 27.193747,74.540329 
	C27.396027,74.781631 27.650127,74.939598 28.480835,75.106583 
	C28.649088,75.163498 28.817339,75.220413 29.137611,75.922134 
	C32.100212,77.615448 35.062809,79.308762 37.948620,81.679390 
	C38.350483,82.746780 38.752346,83.814178 39.136456,84.959816 
	C39.136456,84.959816 39.096344,84.890327 39.157940,85.341248 
	C39.270988,85.638893 39.471054,85.856499 40.141399,86.575806 
	C41.403069,87.316635 42.664738,88.057465 44.305233,89.384712 
	C45.527805,88.578560 46.750374,87.772400 48.000938,86.997780 
	C48.000938,86.997780 47.970798,86.971733 48.748085,86.981133 
	C49.467716,85.626297 50.187344,84.271461 50.877560,82.948494 
	C50.877560,82.948494 50.877621,82.903831 51.574886,82.910416 
	C52.106228,82.007278 52.862320,81.163544 53.120113,80.188110 
	C53.594135,78.394501 53.774910,76.523384 54.910931,74.842186 
	C56.602623,74.930687 58.294319,75.019188 60.197372,75.586510 
	C60.144894,76.413559 60.092415,77.240608 59.993019,78.016830 
	C59.993019,78.016830 60.058033,78.040207 59.580444,78.198975 
	C59.385895,78.463882 59.191345,78.728783 59.000000,79.000000 
z"/>
<path fill="#DCA480" opacity="1.000000" stroke="none" 
	d="
M76.726852,68.836975 
	C76.726852,68.836975 76.367195,68.967369 75.907158,69.167786 
	C73.947227,70.529877 72.447327,71.691559 70.604599,72.908966 
	C69.183388,73.379654 68.104996,73.794601 66.739182,74.170868 
	C65.951447,74.377663 65.451134,74.623131 64.711151,74.871147 
	C64.471497,74.873695 64.002014,74.970406 63.600334,74.936409 
	C62.127769,74.970840 61.056892,75.039261 59.986012,75.107681 
	C58.294319,75.019188 56.602623,74.930687 54.305084,74.513557 
	C52.121090,73.129845 50.542938,72.074753 48.861160,70.796562 
	C48.538563,70.290810 48.250439,70.157074 47.661888,69.949905 
	C46.264717,68.502625 45.098816,67.277695 43.833763,65.721191 
	C42.857399,63.556473 41.980186,61.723328 41.067421,59.513985 
	C40.755016,57.725273 40.478157,56.312752 40.165482,54.522427 
	C40.104664,52.090714 40.079662,50.036804 40.054657,47.982899 
	C40.055019,47.551823 40.055382,47.120743 40.420227,46.234127 
	C41.623455,44.239334 42.462193,42.700077 43.555023,40.960678 
	C45.226753,38.927341 46.644394,37.094151 48.434322,35.191711 
	C55.515800,31.596260 62.404385,29.998568 69.948013,33.421669 
	C71.466660,34.371983 72.774406,35.076084 74.327896,35.987534 
	C75.974136,37.494186 77.374641,38.793484 78.863464,40.428474 
	C79.941338,42.551434 80.930870,44.338699 81.955139,46.444080 
	C82.089714,47.176609 82.189568,47.591015 82.285095,48.248692 
	C82.374741,48.826180 82.575874,49.073212 82.872673,49.528320 
	C82.928047,50.210934 82.994926,50.598282 83.006226,51.394096 
	C82.919640,53.445065 82.888641,55.087566 82.619659,56.951969 
	C82.011497,58.120049 81.641319,59.066227 81.098221,60.326149 
	C79.525818,63.372253 78.126335,66.104614 76.726852,68.836975 
M75.101372,65.534180 
	C80.334549,58.726318 81.246964,50.766273 77.176491,44.130718 
	C73.089294,37.467915 67.110222,34.125439 59.118389,35.003601 
	C51.928440,35.793648 45.560036,41.381214 43.532417,48.636166 
	C41.478470,55.985340 44.736706,64.425331 51.280243,68.705765 
	C58.702400,73.560951 66.703758,72.654160 75.101372,65.534180 
z"/>
<path fill="#FDF5EC" opacity="1.000000" stroke="none" 
	d="
M69.737114,33.175461 
	C62.404385,29.998568 55.515800,31.596260 48.504242,34.883423 
	C48.463570,34.076954 48.725266,33.509537 49.104256,32.649162 
	C49.690388,31.202873 50.159233,30.049541 50.737839,28.515755 
	C50.794933,27.088861 50.742264,26.042421 50.691345,24.758728 
	C50.585819,24.205687 50.387894,23.964109 49.949997,23.483404 
	C47.309822,21.765087 44.818974,20.360109 42.328125,18.955133 
	C41.447617,21.315605 40.567112,23.676079 39.686607,26.036552 
	C38.883255,25.870277 38.044395,25.795080 37.290783,25.501238 
	C36.883156,25.342300 36.621067,24.810102 35.860294,23.965601 
	C37.793835,21.430626 39.338387,17.384705 41.878124,16.612692 
	C44.735512,15.744123 48.490417,17.828180 52.174068,18.703697 
	C52.981846,17.686037 53.945156,16.591587 54.776100,15.404487 
	C57.972321,10.838305 61.888367,9.781723 66.658051,12.476460 
	C69.546593,14.108401 69.376961,16.351891 66.828979,18.634628 
	C64.443260,16.721077 62.618160,14.859611 60.793060,12.998144 
	C59.238815,14.995260 56.852028,16.789762 56.306263,19.032310 
	C55.220715,23.492813 57.640247,26.938471 61.911747,29.985846 
	C63.592369,27.172495 65.152298,24.561180 66.712227,21.949867 
	C67.995865,22.447281 69.279503,22.944693 70.781013,24.157570 
	C71.020538,27.581398 71.042183,30.289762 70.730034,33.026588 
	C70.176529,33.095184 69.956818,33.135323 69.737114,33.175461 
z"/>
<path fill="#FDFBF6" opacity="1.000000" stroke="none" 
	d="
M78.775139,40.092781 
	C77.374641,38.793484 75.974136,37.494186 74.277763,35.693695 
	C73.651810,34.460331 73.321732,33.728161 72.995827,32.998146 
	C73.000000,33.000305 72.996025,32.993053 73.386688,33.005970 
	C75.226006,32.407814 76.674667,31.796745 78.464417,31.138279 
	C79.566795,30.189512 80.328079,29.288143 81.193497,28.076153 
	C81.619766,27.202559 81.941895,26.639585 82.581528,25.988396 
	C83.260307,24.937477 83.621590,23.974771 83.989227,22.676033 
	C84.001144,21.891851 84.006721,21.443703 84.012291,20.995556 
	C88.111343,21.324356 93.188751,25.971012 93.717804,30.558865 
	C93.241600,31.012503 93.050926,31.046270 92.489304,31.106216 
	C90.434372,31.432367 88.750389,31.732344 86.674484,32.017395 
	C82.043732,32.471107 81.684502,32.938301 83.093597,36.405182 
	C82.670334,37.827110 82.310471,38.911312 81.693237,40.097408 
	C80.548950,40.163792 79.662041,40.128284 78.775139,40.092781 
z"/>
<path fill="#FDFAF4" opacity="1.000000" stroke="none" 
	d="
M67.026596,74.209549 
	C68.104996,73.794601 69.183388,73.379654 70.807968,73.235847 
	C71.788200,73.782768 72.222237,74.058533 72.530106,74.689301 
	C72.156937,76.017876 71.909935,76.991447 71.354721,78.058273 
	C71.287872,79.442528 71.529243,80.733521 71.892319,82.327164 
	C72.339546,83.434998 72.665077,84.240204 73.080154,85.253143 
	C73.340767,85.720543 73.569511,85.910873 73.903412,86.040749 
	C73.950890,86.049606 73.968246,86.144623 74.085823,86.338058 
	C74.404480,86.772095 74.657135,86.930435 75.188904,87.075157 
	C75.716019,87.281479 75.943481,87.495712 76.087387,88.125854 
	C76.384743,89.298721 76.693535,90.132256 77.002327,90.965790 
	C72.610138,92.310646 68.217949,93.655502 63.398640,94.696472 
	C62.947651,94.190369 62.923779,93.988144 63.085651,93.500931 
	C68.292099,87.394508 68.239342,85.302773 62.945107,77.878113 
	C63.331955,76.679108 63.666988,75.824760 64.002014,74.970406 
	C64.002014,74.970406 64.471497,74.873695 64.862396,75.114395 
	C65.844398,74.973244 66.435501,74.591400 67.026596,74.209549 
z"/>
<path fill="#FDFBF5" opacity="1.000000" stroke="none" 
	d="
M43.932915,66.052765 
	C45.098816,67.277695 46.264717,68.502625 47.679001,70.173691 
	C47.927391,70.619835 47.967224,71.068695 47.782974,71.322273 
	C47.047699,72.598450 46.496674,73.621048 45.637428,74.801033 
	C43.514610,76.640106 41.700012,78.321793 39.644707,80.112762 
	C38.944469,80.482056 38.484943,80.742065 38.025414,81.002075 
	C35.062809,79.308762 32.100212,77.615448 29.473713,75.532990 
	C31.199562,75.092949 32.589310,75.042046 34.351540,74.997917 
	C36.816601,72.792641 38.873371,70.544998 41.019184,68.385864 
	C41.890640,67.508995 42.955860,66.824692 43.932915,66.052765 
z"/>
<path fill="#FCFDFA" opacity="1.000000" stroke="none" 
	d="
M82.289413,48.005424 
	C82.189568,47.591015 82.089714,47.176609 82.034042,46.086571 
	C83.316414,45.256931 84.638939,45.328033 85.775414,44.902393 
	C88.197189,43.995384 90.522423,42.830578 93.050278,41.555618 
	C93.760399,40.877350 94.307457,40.414875 95.208801,39.966442 
	C96.034554,39.973873 96.506020,39.967266 96.977493,39.960663 
	C97.060318,41.407249 97.143150,42.853844 97.239029,44.528313 
	C98.751945,44.411819 99.980461,44.317226 102.010376,44.160927 
	C102.010376,46.323822 102.010376,48.217392 101.957718,50.592129 
	C101.905067,51.073296 101.782745,51.173306 101.483963,50.981773 
	C96.107857,46.875061 92.980667,46.916519 86.717865,50.977413 
	C86.472862,50.976025 85.983055,50.990124 85.617538,50.992126 
	C84.521950,50.991299 83.791878,50.988464 83.061806,50.985630 
	C82.994926,50.598282 82.928047,50.210934 82.861755,49.285652 
	C82.769173,48.424717 82.578194,48.177284 82.289413,48.005424 
z"/>
<path fill="#DDA681" opacity="1.000000" stroke="none" 
	d="
M95.733978,68.067650 
	C95.605675,70.150299 95.477371,72.232948 94.712166,74.598221 
	C88.858521,76.078232 85.289337,73.596291 82.378860,69.643333 
	C82.378860,69.643333 82.386353,69.254295 82.309555,68.700775 
	C81.227585,63.927742 85.132858,64.507294 87.376305,63.173019 
	C88.051834,63.146656 88.438248,63.127415 88.977158,63.304264 
	C89.129662,63.500351 89.578766,63.711494 89.578766,63.711494 
	C89.578766,63.711494 90.073578,63.673595 90.452965,63.791626 
	C94.318443,63.112179 94.621300,66.067245 95.733978,68.067650 
M87.652740,70.948349 
	C89.269821,71.335815 90.886902,71.723289 92.831390,72.189209 
	C92.914482,67.902672 90.832062,66.781204 87.849113,67.089111 
	C87.461899,67.129074 87.292847,69.282570 87.652740,70.948349 
z"/>
<path fill="#D8A27E" opacity="1.000000" stroke="none" 
	d="
M72.990616,85.045403 
	C72.665077,84.240204 72.339546,83.434998 71.933182,81.921822 
	C71.789207,80.130905 71.726074,79.047966 71.662933,77.965027 
	C71.909935,76.991447 72.156937,76.017876 72.861206,74.641319 
	C74.483391,74.279243 75.648300,74.320145 76.813217,74.361046 
	C77.015388,74.613556 77.270912,74.787834 77.896355,75.136047 
	C78.417099,75.642540 78.679085,75.737709 78.998886,75.673737 
	C79.786163,76.344185 80.573433,77.014633 81.707001,78.266159 
	C82.010231,81.816780 82.149498,84.816566 81.668839,87.713509 
	C81.615173,88.037003 78.040581,87.776306 76.098824,87.786522 
	C75.943481,87.495712 75.716019,87.281479 75.096664,86.858841 
	C74.573837,86.305519 74.304291,86.162445 73.968246,86.144623 
	C73.968246,86.144623 73.950890,86.049606 73.843140,85.813995 
	C73.568588,85.286942 73.320328,85.109276 72.990616,85.045403 
M74.896820,81.393372 
	C76.119926,82.782959 77.343040,84.172539 79.146637,86.221626 
	C81.025597,80.712509 79.262108,78.624817 75.164383,77.538864 
	C75.040504,78.707901 74.939011,79.665733 74.896820,81.393372 
z"/>
<path fill="#D9A17B" opacity="1.000000" stroke="none" 
	d="
M66.780464,21.589996 
	C65.152298,24.561180 63.592369,27.172495 61.911747,29.985846 
	C57.640247,26.938471 55.220715,23.492813 56.306263,19.032310 
	C56.852028,16.789762 59.238815,14.995260 60.793060,12.998144 
	C62.618160,14.859611 64.443260,16.721077 66.514252,18.812582 
	C66.789665,19.771790 66.819183,20.500956 66.780464,21.589996 
M58.971199,20.512016 
	C59.457642,21.961466 59.944084,23.410915 60.496777,25.057777 
	C64.967865,21.616051 65.031433,19.788816 60.780273,15.886204 
	C60.124786,17.302794 59.559017,18.525492 58.971199,20.512016 
z"/>
<path fill="#D8A179" opacity="1.000000" stroke="none" 
	d="
M62.893291,78.222755 
	C68.239342,85.302773 68.292099,87.394508 62.742897,93.535469 
	C60.492630,92.871712 58.770863,91.888412 57.049095,90.905121 
	C56.908134,90.366722 56.767174,89.828331 56.403206,88.688194 
	C56.801033,85.425529 57.421875,82.764603 58.273148,79.989166 
	C58.667255,79.581772 58.830929,79.288872 58.994598,78.995972 
	C58.994598,78.995972 59.000000,79.000000 59.237617,78.916885 
	C59.669498,78.569244 59.863766,78.304726 60.058033,78.040207 
	C60.058033,78.040207 59.993019,78.016830 60.374992,78.035454 
	C61.469074,78.110306 62.181183,78.166534 62.893291,78.222755 
M63.535316,88.567642 
	C63.269661,86.192413 63.004009,83.817177 62.738354,81.441948 
	C62.008488,81.392738 61.278625,81.343536 60.548759,81.294334 
	C60.022358,83.122009 58.983585,84.984970 59.106369,86.767937 
	C59.242981,88.751648 59.586380,92.145851 63.535316,88.567642 
z"/>
<path fill="#FCFDFA" opacity="1.000000" stroke="none" 
	d="
M96.131271,67.993362 
	C94.621300,66.067245 94.318443,63.112179 90.434456,63.601524 
	C90.036560,63.293392 89.993637,62.910809 90.029884,62.576241 
	C90.380569,61.174606 90.695007,60.107544 91.305504,59.014999 
	C91.797867,58.962894 91.994171,58.936275 92.396698,58.903549 
	C92.602921,58.897442 92.991623,59.035919 92.998795,59.376614 
	C93.363693,60.317276 93.721436,60.917248 94.079170,61.517216 
	C94.390152,60.705074 94.701126,59.892933 95.223198,59.014664 
	C95.434296,58.948540 95.876617,58.958363 96.090042,58.917042 
	C96.583206,58.766880 96.796707,58.581715 97.260574,58.183311 
	C98.022377,57.932377 98.467552,57.818359 98.971588,58.053131 
	C99.465988,58.725800 99.901527,59.049671 100.337051,59.373539 
	C100.517426,58.159302 100.697792,56.945065 101.075867,55.443943 
	C101.443306,53.829140 101.613029,52.501225 101.782745,51.173306 
	C101.782745,51.173306 101.905067,51.073296 101.965866,51.022243 
	C107.312233,55.550774 106.483513,60.446415 100.344635,63.158585 
	C98.693779,63.887939 97.780449,66.286659 96.131271,67.993362 
z"/>
<path fill="#D7A079" opacity="1.000000" stroke="none" 
	d="
M29.969246,58.693649 
	C29.234112,58.764217 28.498976,58.834789 27.173071,58.669090 
	C19.569550,54.656879 19.401033,53.465893 25.130630,48.173115 
	C25.130630,48.173115 25.172256,48.152737 25.580364,48.168056 
	C27.339493,48.063404 28.690512,47.943428 30.041531,47.823456 
	C30.454197,47.936867 30.866863,48.050282 31.823654,48.467026 
	C33.614830,50.853695 34.861877,52.937027 35.952766,55.311272 
	C34.531010,56.397869 33.265411,57.193554 31.711761,57.970730 
	C30.938890,58.199368 30.454069,58.446510 29.969246,58.693649 
M27.708559,50.947243 
	C26.494049,51.542454 25.279539,52.137665 23.880564,52.823277 
	C27.947031,57.062256 29.830564,57.009556 33.560558,52.599224 
	C31.715456,51.989555 30.094618,51.453991 27.708559,50.947243 
z"/>
<path fill="#D9A07B" opacity="1.000000" stroke="none" 
	d="
M94.854523,39.952404 
	C94.307457,40.414875 93.760399,40.877350 92.671875,41.646095 
	C88.352615,43.300518 84.719696,43.894932 81.950615,39.995518 
	C82.310471,38.911312 82.670334,37.827110 83.354904,36.236443 
	C84.808548,34.497429 85.937485,33.264877 87.066414,32.032326 
	C88.750389,31.732344 90.434372,31.432367 92.643723,31.297817 
	C93.169106,31.463245 93.612091,31.676088 93.612091,31.676088 
	C93.612091,31.676088 94.101364,31.629593 94.101364,31.629593 
	C94.879074,32.502724 95.656784,33.375851 96.372116,34.923176 
	C95.824661,37.049049 95.339592,38.500729 94.854523,39.952404 
M85.417351,38.718849 
	C89.577248,41.160919 92.335541,39.751865 93.066811,34.628151 
	C89.485992,33.393513 87.140060,34.766102 85.417351,38.718849 
z"/>
<path fill="#D79F78" opacity="1.000000" stroke="none" 
	d="
M39.885414,80.003479 
	C41.700012,78.321793 43.514610,76.640106 46.050865,74.853668 
	C52.786682,75.128578 50.428375,79.722855 50.877621,82.903831 
	C50.877621,82.903831 50.877560,82.948494 50.634579,83.113144 
	C49.584663,84.509102 48.777729,85.740417 47.970795,86.971733 
	C47.970798,86.971733 48.000938,86.997780 47.663078,87.016357 
	C46.192284,87.622719 45.059345,88.210503 43.926411,88.798294 
	C42.664738,88.057465 41.403069,87.316635 39.945972,86.049133 
	C39.653049,85.187057 39.434982,84.976349 39.096344,84.890327 
	C39.096344,84.890327 39.136456,84.959816 39.181412,84.571045 
	C39.446053,82.789345 39.665733,81.396416 39.885414,80.003479 
M47.909515,81.934639 
	C47.909515,80.452744 47.909515,78.970840 47.909515,76.869751 
	C43.386211,78.923973 41.045185,80.990364 43.235111,86.107872 
	C44.976402,84.727745 46.298740,83.679672 47.909515,81.934639 
z"/>
<path fill="#FDFAF4" opacity="1.000000" stroke="none" 
	d="
M48.986961,32.942120 
	C48.725266,33.509537 48.463570,34.076954 48.131950,34.952663 
	C46.644394,37.094151 45.226753,38.927341 43.180286,40.908684 
	C42.052174,41.024750 41.552887,40.992664 41.044006,40.568977 
	C40.084118,38.421696 39.133831,36.666012 38.142532,34.909153 
	C38.101524,34.907974 38.095558,34.826141 38.055061,34.544224 
	C37.680439,33.825703 37.346321,33.389103 36.871071,32.676659 
	C35.820034,31.601976 34.910126,30.803131 34.000214,30.004288 
	C36.116016,29.659250 38.231815,29.314211 41.024529,29.054386 
	C42.152363,29.415426 42.603291,29.691254 43.215233,30.268658 
	C45.246487,31.360865 47.116722,32.151493 48.986961,32.942120 
z"/>
<path fill="#FEFCF4" opacity="1.000000" stroke="none" 
	d="
M31.999809,57.989235 
	C33.265411,57.193554 34.531010,56.397869 36.359715,55.301651 
	C38.015644,54.967487 39.108471,54.933865 40.201298,54.900238 
	C40.478157,56.312752 40.755016,57.725273 41.019569,59.915222 
	C39.984699,61.809635 38.962135,62.926617 37.567093,64.006470 
	C34.848637,64.179886 32.502655,64.390434 30.156675,64.600983 
	C30.106247,63.370979 30.055819,62.140972 30.326263,60.407688 
	C31.098028,59.266018 31.548920,58.627628 31.999809,57.989235 
z"/>
<path fill="#C99068" opacity="1.000000" stroke="none" 
	d="
M30.024521,64.576248 
	C32.502655,64.390434 34.848637,64.179886 37.731499,64.288002 
	C40.318352,67.804306 39.902351,70.115417 36.014881,70.762512 
	C36.178699,69.355743 36.245880,68.330215 36.313065,67.304695 
	C34.395588,67.475479 32.224281,67.161865 30.649683,67.986977 
	C29.596199,68.539017 29.390539,70.708992 28.514076,72.875206 
	C31.475790,72.875206 33.260693,72.875206 34.975208,73.166710 
	C34.596233,73.969193 34.287647,74.480164 33.979057,74.991150 
	C32.589310,75.042046 31.199562,75.092949 29.397703,75.210587 
	C28.817339,75.220413 28.649088,75.163498 28.118652,74.850052 
	C27.560442,74.325676 27.297150,74.176743 26.966595,74.146713 
	C26.793734,73.837608 26.620872,73.528511 26.185259,72.735641 
	C27.159073,69.662415 28.395641,67.072960 29.632210,64.483498 
	C29.632210,64.483498 29.892365,64.551514 30.024521,64.576248 
z"/>
<path fill="#FDE5CF" opacity="1.000000" stroke="none" 
	d="
M81.089363,28.386772 
	C80.328079,29.288143 79.566795,30.189512 78.284706,30.873787 
	C75.836006,30.744471 72.854050,28.681211 72.996025,32.993053 
	C72.996025,32.993053 73.000000,33.000305 72.674194,32.996300 
	C71.920197,32.994240 71.492020,32.996181 71.063835,32.998127 
	C71.042183,30.289762 71.020538,27.581398 70.999443,24.419121 
	C71.000000,23.965208 71.375801,23.942387 71.637817,24.315823 
	C72.186714,26.009949 72.473595,27.330637 72.760468,28.651327 
	C74.041046,27.159903 74.025360,25.451580 74.858803,24.449474 
	C75.985207,23.095119 77.763962,22.283325 79.262825,21.238739 
	C79.472496,22.860203 79.587929,24.501974 79.931168,26.094658 
	C80.105644,26.904293 80.690193,27.625559 81.089363,28.386772 
z"/>
<path fill="#D19A75" opacity="1.000000" stroke="none" 
	d="
M37.848755,42.867355 
	C36.227322,42.879963 34.605885,42.892574 32.443295,42.710403 
	C31.641201,42.279808 31.338671,42.198044 30.994547,42.270332 
	C30.994547,42.270332 30.568764,42.057262 30.223015,41.778351 
	C29.580189,41.346302 29.283110,41.193169 28.986031,41.040031 
	C28.986032,41.040031 28.999552,40.998081 28.858662,40.683659 
	C27.864876,37.953873 27.011984,35.538513 26.159090,33.123150 
	C26.159090,33.123150 26.055817,33.001945 26.473499,32.990814 
	C30.494350,30.822348 33.787857,32.001232 37.110718,34.156689 
	C37.504295,34.538200 37.799927,34.682171 38.095558,34.826141 
	C38.095558,34.826141 38.101524,34.907974 38.116211,35.263641 
	C38.037487,36.251827 37.944069,36.884346 37.903370,37.159912 
	C35.179123,36.004166 32.524761,34.878071 29.870399,33.751976 
	C29.619358,34.300152 29.368319,34.848331 29.117277,35.396511 
	C30.537935,38.561611 32.059628,41.542141 36.611195,40.756184 
	C36.892094,40.707676 37.424774,42.117260 37.832726,42.867439 
	C37.825138,42.886433 37.848755,42.867355 37.848755,42.867355 
z"/>
<path fill="#D1926A" opacity="1.000000" stroke="none" 
	d="
M43.054218,29.967079 
	C42.603291,29.691254 42.152363,29.415426 41.456459,29.037861 
	C40.846050,28.139429 40.480618,27.342737 39.900894,26.291298 
	C40.567112,23.676079 41.447617,21.315605 42.328125,18.955133 
	C44.818974,20.360109 47.309822,21.765087 49.964478,23.719900 
	C50.219643,24.585890 50.406746,24.827972 50.689598,24.995983 
	C50.742264,26.042421 50.794933,27.088861 50.413647,28.549789 
	C49.321743,28.965118 48.663795,28.965960 48.065605,28.556129 
	C48.527748,24.032372 47.278793,21.356018 43.191223,21.149376 
	C42.590874,21.541237 41.990528,21.933098 41.390179,22.324959 
	C42.598175,24.528486 43.806171,26.732012 44.867195,29.194820 
	C44.164890,29.625095 43.609554,29.796087 43.054218,29.967079 
z"/>
<path fill="#D0966D" opacity="1.000000" stroke="none" 
	d="
M81.193497,28.076153 
	C80.690193,27.625559 80.105644,26.904293 79.931168,26.094658 
	C79.587929,24.501974 79.472496,22.860203 79.262825,21.238739 
	C77.763962,22.283325 75.985207,23.095119 74.858803,24.449474 
	C74.025360,25.451580 74.041046,27.159903 72.760468,28.651327 
	C72.473595,27.330637 72.186714,26.009949 71.825806,24.305927 
	C71.751778,23.922596 71.879990,23.461380 72.233002,23.099789 
	C73.708214,21.482193 74.830414,20.226191 76.202408,18.909250 
	C76.607826,18.776491 76.763458,18.704668 77.320213,18.732433 
	C78.817924,18.878300 79.914513,18.924576 81.161621,19.268505 
	C81.837883,20.725910 82.363617,21.885666 82.798637,23.353012 
	C82.559952,24.465939 82.411987,25.271275 82.264023,26.076611 
	C81.941895,26.639585 81.619766,27.202559 81.193497,28.076153 
z"/>
<path fill="#FEF1E3" opacity="1.000000" stroke="none" 
	d="
M87.087189,63.180149 
	C85.132858,64.507294 81.227585,63.927742 82.235596,68.520828 
	C80.707504,68.909256 79.176582,68.924110 77.186249,68.887970 
	C78.126335,66.104614 79.525818,63.372253 81.384804,60.322525 
	C82.228218,60.003544 82.612129,60.001923 83.240265,60.002777 
	C83.484497,60.005257 83.973000,60.005962 84.031120,60.341225 
	C85.088554,61.511040 86.087875,62.345596 87.087189,63.180149 
z"/>
<path fill="#FEF2E4" opacity="1.000000" stroke="none" 
	d="
M51.226254,82.907120 
	C50.428375,79.722855 52.786682,75.128578 46.359081,74.696289 
	C46.496674,73.621048 47.047699,72.598450 48.032459,71.307907 
	C48.466190,71.039955 48.964783,71.019669 48.964783,71.019669 
	C50.542938,72.074753 52.121090,73.129845 53.888577,74.434753 
	C53.774910,76.523384 53.594135,78.394501 53.120113,80.188110 
	C52.862320,81.163544 52.106228,82.007278 51.226254,82.907120 
z"/>
<path fill="#FEF0E1" opacity="1.000000" stroke="none" 
	d="
M40.165482,54.522430 
	C39.108471,54.933865 38.015644,54.967487 36.515869,55.010738 
	C34.861877,52.937027 33.614830,50.853695 32.139416,48.525101 
	C33.613544,48.414818 35.314236,48.605644 37.019310,48.660664 
	C37.843140,48.687248 38.675213,48.458546 39.779106,48.164165 
	C40.079662,50.036804 40.104664,52.090714 40.165482,54.522430 
z"/>
<path fill="#FEF1E3" opacity="1.000000" stroke="none" 
	d="
M76.087387,88.125854 
	C78.040581,87.776306 81.615173,88.037003 81.668839,87.713509 
	C82.149498,84.816566 82.010231,81.816780 81.957489,78.458023 
	C86.554382,78.769028 84.924347,82.349770 84.766281,84.957458 
	C84.515167,89.100113 82.443680,91.630569 77.415070,90.977036 
	C76.693535,90.132256 76.384743,89.298721 76.087387,88.125854 
z"/>
<path fill="#FEF1E3" opacity="1.000000" stroke="none" 
	d="
M82.145462,69.935730 
	C85.289337,73.596291 88.858521,76.078232 94.501801,74.865143 
	C93.040245,75.523636 90.965210,77.055496 89.303009,76.693214 
	C85.858017,75.942383 82.632385,74.185081 78.533905,72.524506 
	C80.173294,71.410103 81.042679,70.819122 82.145462,69.935730 
z"/>
<path fill="#FEF0E1" opacity="1.000000" stroke="none" 
	d="
M24.739239,48.118874 
	C19.401033,53.465893 19.569550,54.656879 26.803154,58.686619 
	C23.781231,59.988834 20.069122,57.770172 19.228821,54.143848 
	C18.252008,49.928410 20.664112,48.427715 24.739239,48.118874 
z"/>
<path fill="#FDFBF6" opacity="1.000000" stroke="none" 
	d="
M76.919083,18.632847 
	C76.763458,18.704668 76.607826,18.776491 75.834892,18.906534 
	C74.482498,18.988085 73.747406,19.011414 73.012306,19.034744 
	C74.257141,17.432287 75.215004,15.103378 76.839378,14.461685 
	C78.095078,13.965631 80.185814,15.583369 81.699242,16.636559 
	C81.325592,17.014973 81.158020,17.018192 80.632545,17.015831 
	C79.156128,17.551115 78.037605,18.091982 76.919083,18.632847 
z"/>
<path fill="#FEF0E1" opacity="1.000000" stroke="none" 
	d="
M37.012768,33.919147 
	C33.787857,32.001232 30.494350,30.822348 26.508644,33.062248 
	C27.180626,29.094330 30.016724,29.074915 33.632900,29.996861 
	C34.910126,30.803131 35.820034,31.601976 36.866402,32.918587 
	C37.002861,33.436356 37.012768,33.919147 37.012768,33.919147 
z"/>
<path fill="#FEF2E4" opacity="1.000000" stroke="none" 
	d="
M58.042713,80.103676 
	C57.421875,82.764603 56.801033,85.425529 56.209854,88.484848 
	C52.950844,86.514954 53.345688,82.735626 57.636890,79.320770 
	C58.021778,79.734421 58.032246,79.919052 58.042713,80.103676 
z"/>
<path fill="#FEF6EA" opacity="1.000000" stroke="none" 
	d="
M29.246704,64.353180 
	C28.395641,67.072960 27.159073,69.662415 25.931538,72.637810 
	C23.089951,70.247353 24.340469,66.479095 29.246704,64.353180 
z"/>
<path fill="#FEF1E3" opacity="1.000000" stroke="none" 
	d="
M76.844673,73.973816 
	C75.648300,74.320145 74.483391,74.279243 72.987381,74.286324 
	C72.222237,74.058533 71.788200,73.782768 71.150787,73.180115 
	C72.447327,71.691559 73.947227,70.529877 75.754532,69.283089 
	C76.333344,70.660851 76.604736,72.123711 76.844673,73.973816 
z"/>
<path fill="#FEF0E1" opacity="1.000000" stroke="none" 
	d="
M25.790947,33.126350 
	C27.011984,35.538513 27.864876,37.953873 28.840319,40.695900 
	C24.953465,39.741825 23.560762,36.636623 25.790947,33.126350 
z"/>
<path fill="#FEF0E1" opacity="1.000000" stroke="none" 
	d="
M41.053600,40.960579 
	C41.552887,40.992664 42.052174,41.024750 42.926193,41.108826 
	C42.462193,42.700077 41.623455,44.239334 40.486961,45.916164 
	C39.458195,45.220543 38.727177,44.387344 37.922459,43.210751 
	C37.848755,42.867355 37.825138,42.886433 38.173611,42.897583 
	C39.365925,42.259350 40.209763,41.609966 41.053600,40.960579 
z"/>
<path fill="#FEF2E4" opacity="1.000000" stroke="none" 
	d="
M57.031494,91.286057 
	C58.770863,91.888412 60.492630,92.871712 62.557152,93.820465 
	C62.923779,93.988144 62.947651,94.190369 62.987938,94.697617 
	C59.854061,95.962257 57.537865,95.423935 57.031494,91.286057 
z"/>
<path fill="#FDEFDF" opacity="1.000000" stroke="none" 
	d="
M80.990440,17.021414 
	C81.158020,17.018192 81.325592,17.014973 81.744522,17.009720 
	C82.646072,18.120317 83.296272,19.232946 83.979385,20.670567 
	C84.006721,21.443703 84.001144,21.891851 83.715759,22.678211 
	C83.253746,23.026089 83.071556,23.035753 82.889359,23.045422 
	C82.363617,21.885666 81.837883,20.725910 81.157875,18.943535 
	C80.999214,17.887745 80.994827,17.454580 80.990440,17.021414 
z"/>
<path fill="#FEF0E1" opacity="1.000000" stroke="none" 
	d="
M29.962273,47.495281 
	C28.690512,47.943428 27.339493,48.063404 25.587360,48.190147 
	C25.497118,42.131130 28.136822,46.686680 29.962273,47.495281 
z"/>
<path fill="#FDEFDF" opacity="1.000000" stroke="none" 
	d="
M95.208801,39.966442 
	C95.339592,38.500729 95.824661,37.049049 96.501801,35.255676 
	C96.812439,36.373306 96.931015,37.832638 97.013542,39.626312 
	C96.506020,39.967266 96.034554,39.973873 95.208801,39.966442 
z"/>
<path fill="#FCE9D6" opacity="1.000000" stroke="none" 
	d="
M72.743011,19.263611 
	C73.747406,19.011414 74.482498,18.988085 75.585114,18.967472 
	C74.830414,20.226191 73.708214,21.482193 72.291245,22.867630 
	C72.155556,21.828869 72.314636,20.660673 72.743011,19.263611 
z"/>
<path fill="#FEF2E4" opacity="1.000000" stroke="none" 
	d="
M44.115822,89.091507 
	C45.059345,88.210503 46.192284,87.622719 47.649086,87.000595 
	C46.750374,87.772400 45.527805,88.578560 44.115822,89.091507 
z"/>
<path fill="#FEF1E3" opacity="1.000000" stroke="none" 
	d="
M62.945107,77.878113 
	C62.181183,78.166534 61.469074,78.110306 60.398453,78.060867 
	C60.092415,77.240608 60.144894,76.413559 60.091690,75.347092 
	C61.056892,75.039261 62.127769,74.970840 63.600334,74.936409 
	C63.666988,75.824760 63.331955,76.679108 62.945107,77.878113 
z"/>
<path fill="#FEF2E4" opacity="1.000000" stroke="none" 
	d="
M39.644707,80.112762 
	C39.665733,81.396416 39.446053,82.789345 39.190289,84.531921 
	C38.752346,83.814178 38.350483,82.746780 37.987015,81.340729 
	C38.484943,80.742065 38.944469,80.482056 39.644707,80.112762 
z"/>
<path fill="#FEF2E4" opacity="1.000000" stroke="none" 
	d="
M48.359440,86.976433 
	C48.777729,85.740417 49.584663,84.509102 50.649284,83.097214 
	C50.187344,84.271461 49.467716,85.626297 48.359440,86.976433 
z"/>
<path fill="#FEF0E1" opacity="1.000000" stroke="none" 
	d="
M31.711761,57.970734 
	C31.548920,58.627628 31.098028,59.266018 30.328085,59.945782 
	C30.000307,59.772232 29.991579,59.557304 29.976051,59.018017 
	C30.454069,58.446510 30.938890,58.199368 31.711761,57.970734 
z"/>
<path fill="#FEF2E4" opacity="1.000000" stroke="none" 
	d="
M39.127144,85.115784 
	C39.434982,84.976349 39.653049,85.187057 39.754341,85.758263 
	C39.471054,85.856499 39.270988,85.638893 39.127144,85.115784 
z"/>
<path fill="#FDEFDF" opacity="1.000000" stroke="none" 
	d="
M94.081673,31.445415 
	C94.101364,31.629593 93.612091,31.676088 93.612091,31.676088 
	C93.612091,31.676088 93.169106,31.463245 93.014679,31.271643 
	C93.050926,31.046270 93.241600,31.012503 93.719986,30.936756 
	C94.007706,30.894781 94.061981,31.261238 94.081673,31.445415 
z"/>
<path fill="#FEF1E3" opacity="1.000000" stroke="none" 
	d="
M58.273148,79.989166 
	C58.032246,79.919052 58.021778,79.734421 58.005463,79.272385 
	C57.999615,78.994980 58.497158,78.984787 58.745880,78.990379 
	C58.830929,79.288872 58.667255,79.581772 58.273148,79.989166 
z"/>
<path fill="#FEF1E3" opacity="1.000000" stroke="none" 
	d="
M59.819237,78.119591 
	C59.863766,78.304726 59.669498,78.569244 59.236015,78.913727 
	C59.191345,78.728783 59.385895,78.463882 59.819237,78.119591 
z"/>
<path fill="#FEF1E3" opacity="1.000000" stroke="none" 
	d="
M78.879333,75.509216 
	C78.679085,75.737709 78.417099,75.642540 78.125366,75.187126 
	C78.317413,75.027275 78.558075,75.146828 78.879333,75.509216 
z"/>
<path fill="#FEF0E1" opacity="1.000000" stroke="none" 
	d="
M29.099949,41.269276 
	C29.283110,41.193169 29.580189,41.346302 29.989975,41.729721 
	C29.806414,41.806175 29.510141,41.652348 29.099949,41.269276 
z"/>
<path fill="#FEF0E1" opacity="1.000000" stroke="none" 
	d="
M31.139027,42.457546 
	C31.338671,42.198044 31.641201,42.279808 32.037834,42.718254 
	C31.837738,42.954666 31.541063,42.862625 31.139027,42.457546 
z"/>
<path fill="#FEF6EA" opacity="1.000000" stroke="none" 
	d="
M27.080170,74.343521 
	C27.297150,74.176743 27.560442,74.325676 27.856258,74.803879 
	C27.650127,74.939598 27.396027,74.781631 27.080170,74.343521 
z"/>
<path fill="#FEFCF8" opacity="1.000000" stroke="none" 
	d="
M74.845131,65.799179 
	C66.703758,72.654160 58.702400,73.560951 51.280243,68.705765 
	C44.736706,64.425331 41.478470,55.985340 43.532417,48.636166 
	C45.560036,41.381214 51.928440,35.793648 59.118389,35.003601 
	C67.110222,34.125439 73.089294,37.467915 77.176491,44.130718 
	C81.246964,50.766273 80.334549,58.726318 74.845131,65.799179 
z"/>
<path fill="#FAE0CA" opacity="1.000000" stroke="none" 
	d="
M35.918243,71.143753 
	C39.902351,70.115417 40.318352,67.804306 38.103981,64.325134 
	C38.962135,62.926617 39.984699,61.809635 41.055119,60.291420 
	C41.980186,61.723328 42.857399,63.556473 43.833763,65.721191 
	C42.955860,66.824692 41.890640,67.508995 41.019184,68.385864 
	C38.873371,70.544998 36.816601,72.792641 34.351540,74.997910 
	C34.287647,74.480164 34.596233,73.969193 35.059860,72.939026 
	C35.449352,71.994484 35.683796,71.569115 35.918243,71.143753 
z"/>
<path fill="#FDEFDF" opacity="1.000000" stroke="none" 
	d="
M81.693237,40.097408 
	C84.719696,43.894932 88.352615,43.300518 92.508820,41.861893 
	C90.522423,42.830578 88.197189,43.995384 85.775414,44.902393 
	C84.638939,45.328033 83.316414,45.256931 81.999313,45.768448 
	C80.930870,44.338699 79.941338,42.551434 78.863464,40.428474 
	C79.662041,40.128284 80.548950,40.163792 81.693237,40.097408 
z"/>
<path fill="#FEF8EE" opacity="1.000000" stroke="none" 
	d="
M83.973000,60.005959 
	C83.973000,60.005962 83.484497,60.005257 83.241943,59.595272 
	C82.952141,58.366882 82.904892,57.548473 82.857651,56.730068 
	C82.888641,55.087566 82.919640,53.445065 83.006226,51.394096 
	C83.791878,50.988464 84.521950,50.991299 85.623978,51.258194 
	C86.005501,51.699337 86.015076,51.876423 86.004639,52.406906 
	C87.088524,54.451553 88.192421,56.142807 88.904900,57.888771 
	C86.999985,58.630970 85.486488,59.318466 83.973000,60.005959 
z"/>
<path fill="#FCE9D6" opacity="1.000000" stroke="none" 
	d="
M70.730034,33.026588 
	C71.492020,32.996181 71.920197,32.994240 72.670013,32.994144 
	C73.321732,33.728161 73.651810,34.460331 74.032013,35.486343 
	C72.774406,35.076084 71.466660,34.371983 69.948013,33.421669 
	C69.956818,33.135323 70.176529,33.095184 70.730034,33.026588 
z"/>
<path fill="#FEEFDF" opacity="1.000000" stroke="none" 
	d="
M82.619659,56.951969 
	C82.904892,57.548473 82.952141,58.366882 82.997711,59.592796 
	C82.612129,60.001923 82.228218,60.003544 81.557724,60.008785 
	C81.641319,59.066227 82.011497,58.120049 82.619659,56.951969 
z"/>
<path fill="#FEF1E3" opacity="1.000000" stroke="none" 
	d="
M66.739182,74.170868 
	C66.435501,74.591400 65.844398,74.973244 65.102051,75.111847 
	C65.451134,74.623131 65.951447,74.377663 66.739182,74.170868 
z"/>
<path fill="#FEEFDF" opacity="1.000000" stroke="none" 
	d="
M82.285095,48.248692 
	C82.578194,48.177284 82.769173,48.424717 82.873260,48.990387 
	C82.575874,49.073212 82.374741,48.826180 82.285095,48.248692 
z"/>
<path fill="#FAE0CA" opacity="1.000000" stroke="none" 
	d="
M48.861160,70.796562 
	C48.964783,71.019669 48.466190,71.039955 48.216705,71.054321 
	C47.967224,71.068695 47.927391,70.619835 47.910278,70.396042 
	C48.250439,70.157074 48.538563,70.290810 48.861160,70.796562 
z"/>
<path fill="#E2A67E" opacity="1.000000" stroke="none" 
	d="
M48.005848,28.966801 
	C48.663795,28.965960 49.321743,28.965118 50.303886,28.930244 
	C50.159233,30.049541 49.690388,31.202873 49.104256,32.649162 
	C47.116722,32.151493 45.246487,31.360865 43.215233,30.268660 
	C43.609554,29.796087 44.164890,29.625095 45.240845,29.174845 
	C46.509594,28.919325 47.257721,28.943064 48.005848,28.966801 
z"/>
<path fill="#E2A67E" opacity="1.000000" stroke="none" 
	d="
M50.691345,24.758728 
	C50.406746,24.827972 50.219643,24.585890 50.113808,24.033241 
	C50.387894,23.964109 50.585819,24.205687 50.691345,24.758728 
z"/>
<path fill="#FCE9D6" opacity="1.000000" stroke="none" 
	d="
M73.386688,33.005970 
	C72.854050,28.681211 75.836006,30.744471 77.943619,30.921185 
	C76.674667,31.796745 75.226006,32.407814 73.386688,33.005970 
z"/>
<path fill="#FDEFDF" opacity="1.000000" stroke="none" 
	d="
M86.674484,32.017395 
	C85.937485,33.264877 84.808548,34.497429 83.418304,35.898716 
	C81.684502,32.938301 82.043732,32.471107 86.674484,32.017395 
z"/>
<path fill="#FDE5CF" opacity="1.000000" stroke="none" 
	d="
M82.798637,23.353012 
	C83.071556,23.035753 83.253746,23.026089 83.709404,23.014246 
	C83.621590,23.974771 83.260307,24.937477 82.581528,25.988396 
	C82.411987,25.271275 82.559952,24.465939 82.798637,23.353012 
z"/>
<path fill="#FEF1E3" opacity="1.000000" stroke="none" 
	d="
M71.354721,78.058273 
	C71.726074,79.047966 71.789207,80.130905 71.811478,81.619186 
	C71.529243,80.733521 71.287872,79.442528 71.354721,78.058273 
z"/>
<path fill="#FEF1E3" opacity="1.000000" stroke="none" 
	d="
M73.080154,85.253143 
	C73.320328,85.109276 73.568588,85.286942 73.795670,85.805138 
	C73.569511,85.910873 73.340767,85.720543 73.080154,85.253143 
z"/>
<path fill="#FEF1E3" opacity="1.000000" stroke="none" 
	d="
M74.085823,86.338058 
	C74.304291,86.162445 74.573837,86.305519 74.869125,86.790176 
	C74.657135,86.930435 74.404480,86.772095 74.085823,86.338058 
z"/>
<path fill="#D9A37C" opacity="1.000000" stroke="none" 
	d="
M89.296318,57.834061 
	C88.192421,56.142807 87.088524,54.451553 86.227966,52.293861 
	C86.635162,51.544552 86.799011,51.261677 86.962860,50.978802 
	C92.980667,46.916519 96.107857,46.875061 101.483963,50.981773 
	C101.613029,52.501225 101.443306,53.829140 100.833450,55.595322 
	C99.899780,56.590500 99.406250,57.147419 98.912720,57.704338 
	C98.467552,57.818359 98.022377,57.932377 97.037491,58.192165 
	C96.196350,58.450150 95.989296,58.656960 95.876617,58.958363 
	C95.876617,58.958363 95.434296,58.948540 94.888351,58.962570 
	C93.892143,58.996376 93.441879,59.016148 92.991623,59.035919 
	C92.991623,59.035919 92.602921,58.897442 92.243042,58.710674 
	C91.609840,58.294022 91.300522,58.224541 90.692078,58.190498 
	C90.051407,57.988377 89.673866,57.911221 89.296318,57.834061 
M96.399399,55.285503 
	C96.778931,54.216660 97.711433,52.382320 97.453461,52.195961 
	C94.481506,50.049061 91.807907,50.608810 88.631973,54.427856 
	C91.581894,54.903049 93.662231,55.238167 96.399399,55.285503 
z"/>
<path fill="#FEEFDF" opacity="1.000000" stroke="none" 
	d="
M86.717865,50.977413 
	C86.799011,51.261677 86.635162,51.544552 86.247986,51.940468 
	C86.015076,51.876423 86.005501,51.699337 85.989494,51.256187 
	C85.983055,50.990124 86.472862,50.976025 86.717865,50.977413 
z"/>
<path fill="#FFF2DF" opacity="1.000000" stroke="none" 
	d="
M87.337738,70.702713 
	C87.292847,69.282570 87.461899,67.129074 87.849113,67.089111 
	C90.832062,66.781204 92.914482,67.902672 92.831390,72.189209 
	C90.886902,71.723289 89.269821,71.335815 87.337738,70.702713 
z"/>
<path fill="#FEFFFE" opacity="1.000000" stroke="none" 
	d="
M88.904900,57.888771 
	C89.673866,57.911221 90.051407,57.988377 90.702438,58.371277 
	C90.975929,58.677021 91.009438,59.040478 91.009445,59.040482 
	C90.695007,60.107544 90.380569,61.174606 89.736237,62.617542 
	C89.212448,63.031670 89.018555,63.069923 88.824661,63.108177 
	C88.438248,63.127415 88.051834,63.146656 87.376305,63.173019 
	C86.087875,62.345596 85.088554,61.511040 84.031120,60.341225 
	C85.486488,59.318466 86.999985,58.630970 88.904900,57.888771 
z"/>
<path fill="#FEF1E3" opacity="1.000000" stroke="none" 
	d="
M88.977158,63.304268 
	C89.018555,63.069923 89.212448,63.031670 89.699982,62.952110 
	C89.993637,62.910809 90.036560,63.293392 90.055069,63.483494 
	C90.073578,63.673595 89.578766,63.711494 89.578766,63.711494 
	C89.578766,63.711494 89.129662,63.500351 88.977158,63.304268 
z"/>
<path fill="#FDEBD7" opacity="1.000000" stroke="none" 
	d="
M74.867165,81.008469 
	C74.939011,79.665733 75.040504,78.707901 75.164383,77.538864 
	C79.262108,78.624817 81.025597,80.712509 79.146637,86.221626 
	C77.343040,84.172539 76.119926,82.782959 74.867165,81.008469 
z"/>
<path fill="#FEEDD6" opacity="1.000000" stroke="none" 
	d="
M58.982224,20.130102 
	C59.559017,18.525492 60.124786,17.302794 60.780273,15.886204 
	C65.031433,19.788816 64.967865,21.616051 60.496777,25.057777 
	C59.944084,23.410915 59.457642,21.961466 58.982224,20.130102 
z"/>
<path fill="#FFEAD6" opacity="1.000000" stroke="none" 
	d="
M63.338482,88.869370 
	C59.586380,92.145851 59.242981,88.751648 59.106369,86.767937 
	C58.983585,84.984970 60.022358,83.122009 60.548759,81.294334 
	C61.278625,81.343536 62.008488,81.392738 62.738354,81.441948 
	C63.004009,83.817177 63.269661,86.192413 63.338482,88.869370 
z"/>
<path fill="#FEF8EE" opacity="1.000000" stroke="none" 
	d="
M98.971588,58.053131 
	C99.406250,57.147419 99.899780,56.590500 100.635735,55.882202 
	C100.697792,56.945065 100.517426,58.159302 100.337051,59.373539 
	C99.901527,59.049671 99.465988,58.725800 98.971588,58.053131 
z"/>
<path fill="#FEF8EE" opacity="1.000000" stroke="none" 
	d="
M92.998795,59.376614 
	C93.441879,59.016148 93.892143,58.996376 94.677246,59.028698 
	C94.701126,59.892933 94.390152,60.705074 94.079170,61.517216 
	C93.721436,60.917248 93.363693,60.317276 92.998795,59.376614 
z"/>
<path fill="#FEF8EE" opacity="1.000000" stroke="none" 
	d="
M91.305496,59.014996 
	C91.009438,59.040478 90.975929,58.677021 90.965569,58.496239 
	C91.300522,58.224541 91.609840,58.294022 92.036819,58.716782 
	C91.994171,58.936275 91.797867,58.962894 91.305496,59.014996 
z"/>
<path fill="#FEF8EE" opacity="1.000000" stroke="none" 
	d="
M96.090042,58.917042 
	C95.989296,58.656960 96.196350,58.450150 96.720863,58.329079 
	C96.796707,58.581715 96.583206,58.766880 96.090042,58.917042 
z"/>
<path fill="#FEE8D1" opacity="1.000000" stroke="none" 
	d="
M28.091169,50.932835 
	C30.094618,51.453991 31.715456,51.989555 33.560558,52.599224 
	C29.830564,57.009556 27.947031,57.062256 23.880564,52.823277 
	C25.279539,52.137665 26.494049,51.542454 28.091169,50.932835 
z"/>
<path fill="#FEEBD5" opacity="1.000000" stroke="none" 
	d="
M85.511269,38.371326 
	C87.140060,34.766102 89.485992,33.393513 93.066811,34.628151 
	C92.335541,39.751865 89.577248,41.160919 85.511269,38.371326 
z"/>
<path fill="#FEE8D1" opacity="1.000000" stroke="none" 
	d="
M47.765297,82.283127 
	C46.298740,83.679672 44.976402,84.727745 43.235111,86.107872 
	C41.045185,80.990364 43.386211,78.923973 47.909515,76.869751 
	C47.909515,78.970840 47.909515,80.452744 47.765297,82.283127 
z"/>
<path fill="#FFEBD2" opacity="1.000000" stroke="none" 
	d="
M41.044006,40.568981 
	C40.209763,41.609966 39.365925,42.259350 38.181198,42.878586 
	C37.424774,42.117260 36.892094,40.707676 36.611195,40.756184 
	C32.059628,41.542141 30.537935,38.561611 29.117277,35.396511 
	C29.368319,34.848331 29.619358,34.300152 29.870399,33.751976 
	C32.524761,34.878071 35.179123,36.004166 37.903370,37.159912 
	C37.944069,36.884346 38.037487,36.251827 38.157223,35.264820 
	C39.133831,36.666012 40.084118,38.421696 41.044006,40.568981 
z"/>
<path fill="#FFEBD2" opacity="1.000000" stroke="none" 
	d="
M37.110718,34.156689 
	C37.012768,33.919147 37.002861,33.436356 37.007530,33.194427 
	C37.346321,33.389103 37.680439,33.825703 38.055061,34.544224 
	C37.799927,34.682171 37.504295,34.538200 37.110718,34.156689 
z"/>
<path fill="#FEEBD6" opacity="1.000000" stroke="none" 
	d="
M36.014877,70.762512 
	C35.683796,71.569115 35.449352,71.994484 35.130249,72.647522 
	C33.260693,72.875206 31.475790,72.875206 28.514076,72.875206 
	C29.390539,70.708992 29.596199,68.539017 30.649683,67.986977 
	C32.224281,67.161865 34.395588,67.475479 36.313065,67.304695 
	C36.245880,68.330215 36.178699,69.355743 36.014877,70.762512 
z"/>
<path fill="#FDEAD1" opacity="1.000000" stroke="none" 
	d="
M48.065605,28.556129 
	C47.257721,28.943064 46.509594,28.919325 45.387817,28.915562 
	C43.806171,26.732012 42.598175,24.528486 41.390179,22.324959 
	C41.990528,21.933098 42.590874,21.541237 43.191223,21.149376 
	C47.278793,21.356018 48.527748,24.032372 48.065605,28.556129 
z"/>
<path fill="#FCE9D6" opacity="1.000000" stroke="none" 
	d="
M80.632545,17.015831 
	C80.994827,17.454580 80.999214,17.887745 81.007347,18.645882 
	C79.914513,18.924576 78.817924,18.878300 77.320213,18.732433 
	C78.037605,18.091982 79.156128,17.551115 80.632545,17.015831 
z"/>
<path fill="#FEEAD5" opacity="1.000000" stroke="none" 
	d="
M96.070984,55.429390 
	C93.662231,55.238167 91.581894,54.903049 88.631973,54.427856 
	C91.807907,50.608810 94.481506,50.049061 97.453461,52.195961 
	C97.711433,52.382320 96.778931,54.216660 96.070984,55.429390 
z"/>
</svg>