<?xml version="1.0" encoding="utf-8"?>
<!-- Svg Vector Icons : http://www.onlinewebfonts.com/icon -->
<!DOCTYPE svg PUBLIC "-//W3C//DTD SVG 1.1//EN" "http://www.w3.org/Graphics/SVG/1.1/DTD/svg11.dtd">
<svg version="1.1" xmlns="http://www.w3.org/2000/svg" xmlns:xlink="http://www.w3.org/1999/xlink" x="0px" y="0px" viewBox="0 0 1000 1000" enable-background="new 0 0 1000 1000" xml:space="preserve">
<metadata> Svg Vector Icons : http://www.onlinewebfonts.com/icon </metadata>
<g><path d="M500,10C229.4,10,10,229.4,10,500c0,270.6,219.4,490,490,490c270.6,0,490-219.4,490-490C990,229.4,770.6,10,500,10z M425.3,522c-46.5,116.8-69.8,182.7-69.8,197.6h-46.2c0-19.3-20.5-86.8-61.5-202.6c-41-115.7-61.5-179.3-61.5-190.6h66.8c0,13.2,14.9,65.8,44.8,157.7c29.8,91.9,44.8,144.4,44.8,157.7h3.1c0-12.7,14.2-63.3,42.5-151.9c28.4-88.6,42.5-143,42.5-163.5H495C495,340,471.8,405.1,425.3,522z M802.6,711.7c-18.6,12.7-43.5,19-74.7,19c-59.5,0-104.9-19.7-136.4-59.2c-31.5-39.5-47.2-87-47.2-142.8c0-59,16.5-109.8,49.6-152.3c33.1-42.5,76.8-63.7,131.2-63.7c27.3,0,49.6,3.3,66.8,9.9l-9.3,65c-24.1-10.8-48.6-16.1-73.4-16.1c-32.6,0-58.6,13.7-77.8,41c-19.3,27.3-28.9,61.5-28.9,102.6c0,44.7,11.5,81.9,34.4,111.7c23,29.8,55.5,44.7,97.5,44.7c17.2,0,41.1-5.1,71.6-15.3L802.6,711.7z"/></g>
</svg>