<?xml version="1.0" encoding="iso-8859-1"?>
<!-- Generator: Adobe Illustrator 19.0.0, SVG Export Plug-In . SVG Version: 6.00 Build 0)  -->
<svg version="1.1" id="Layer_1" xmlns="http://www.w3.org/2000/svg" xmlns:xlink="http://www.w3.org/1999/xlink" x="0px" y="0px"
	 viewBox="0 0 378.754 378.754" style="enable-background:new 0 0 378.754 378.754;" xml:space="preserve">
<path style="fill:#CE9A34;" d="M378.746,368.325c0,5.766-4.679,10.429-10.413,10.429H10.421c-5.75,0-10.413-4.663-10.413-10.429
	V10.429C0.008,4.663,4.671,0,10.421,0h357.912c5.742,0,10.413,4.663,10.413,10.429V368.325z"/>
<path style="fill:#E2AA47;" d="M0.008,10.429C0.008,4.663,4.671,0,10.421,0h357.912c5.742,0,10.413,4.663,10.413,10.429"/>
<path style="fill:#B27E22;" d="M368.333,0c5.742,0,10.413,4.663,10.413,10.429v357.896c0,5.766-4.679,10.429-10.413,10.429H10.421
	c-5.75,0-10.413-4.663-10.413-10.429"/>
<path style="fill:#8FD359;" d="M337.928,263.2l-38.258-38.258L261.411,263.2c-4.569,4.584-4.569,11.981,0,16.557
	c4.553,4.569,11.973,4.569,16.542,0l13.446-13.446v62.771c0,4.569,3.71,8.279,8.279,8.279s8.279-3.71,8.279-8.279v-62.755
	l13.446,13.43c4.569,4.569,11.973,4.569,16.542,0C342.512,275.188,342.496,267.768,337.928,263.2z"/>
<g>
</g>
<g>
</g>
<g>
</g>
<g>
</g>
<g>
</g>
<g>
</g>
<g>
</g>
<g>
</g>
<g>
</g>
<g>
</g>
<g>
</g>
<g>
</g>
<g>
</g>
<g>
</g>
<g>
</g>
</svg>
